<svg width="40" height="40" viewBox="0 0 40 40" fill="none" xmlns="http://www.w3.org/2000/svg">
<g clip-path="url(#clip0_60_437)">
<path d="M38.3333 5.00016C36.7373 6.12595 34.9702 6.98701 33.1 7.55016C32.0962 6.39601 30.7622 5.57798 29.2784 5.2067C27.7946 4.83543 26.2325 4.92882 24.8035 5.47425C23.3744 6.01968 22.1474 6.99083 21.2883 8.25635C20.4292 9.52188 19.9795 11.0207 20 12.5502V14.2168C17.0711 14.2928 14.1688 13.6432 11.5517 12.3259C8.93457 11.0086 6.68386 9.06455 5 6.66682C5 6.66682 -1.66667 21.6668 13.3333 28.3335C9.90088 30.6634 5.81193 31.8317 1.66666 31.6668C16.6667 40.0002 35 31.6668 35 12.5002C34.9985 12.0359 34.9538 11.5728 34.8667 11.1168C36.5677 9.43931 37.768 7.32135 38.3333 5.00016Z" stroke="black" stroke-width="4" stroke-linecap="round" stroke-linejoin="round"/>
</g>
<defs>
<clipPath id="clip0_60_437">
<rect width="40" height="40" fill="white"/>
</clipPath>
</defs>
</svg>
